<svg id="Слой_1" data-name="Слой 1" xmlns="http://www.w3.org/2000/svg" viewBox="0 0 148.75 36.08">
  <defs>
    <style>
      .cls-1 {
        font-size: 42.54px;
        font-family: Pompiere-Regular, Pompiere ;
      }

      .cls-1, .cls-2, .cls-5 {
        fill: #fff;
      }

      .cls-1, .cls-2, .cls-3, .cls-4 {
        stroke: #fff;
        stroke-miterlimit: 10;
      }

      .cls-2, .cls-3 {
        stroke-linecap: round;
      }

      .cls-3, .cls-4 {
        fill: none;
      }
    </style>
  </defs>
  <title>logo-small-light</title>
  <text class="cls-1" transform="translate(-4.13 34.93) scale(1.52 1)"><tspan xml:space="preserve">   SHOP</tspan></text>
  <text></text>
  <line class="cls-2" x1="10.38" y1="34.71" x2="21.38" y2="34.71"/>
  <g>
    <line class="cls-3" x1="21.38" y1="34.71" x2="26.38" y2="17.71"/>
    <line class="cls-3" x1="4.38" y1="13.71" x2="26.38" y2="13.71"/>
    <line class="cls-4" x1="4.38" y1="17.71" x2="26.38" y2="17.71"/>
    <line class="cls-4" x1="4.38" y1="17.71" x2="10.38" y2="34.71"/>
    <line class="cls-4" x1="4.38" y1="13.71" x2="4.38" y2="17.71"/>
  </g>
  <line class="cls-2" x1="26.38" y1="13.71" x2="26.38" y2="17.71"/>
  <g>
    <path class="cls-5" d="M9.2,13.19A39,39,0,0,1,7.59,1.58"/>
    <path class="cls-5" d="M9.68,13.05A41.15,41.15,0,0,1,8.09,1.58a.5.5,0,0,0-1,0A42,42,0,0,0,8.72,13.32a.5.5,0,0,0,1-.27Z"/>
  </g>
  <g>
    <path class="cls-5" d="M7.46,1.12a39.17,39.17,0,0,1,7.19,12"/>
    <path class="cls-5" d="M7.11,1.47a40.6,40.6,0,0,1,7.06,11.74c.23.59,1.2.33,1-.27A42.2,42.2,0,0,0,7.82.76C7.4.27,6.69,1,7.11,1.47Z"/>
  </g>
  <g>
    <path class="cls-5" d="M14.64,12.83a29.69,29.69,0,0,1,1-11.36"/>
    <path class="cls-5" d="M15.14,12.83a31.25,31.25,0,0,1,1-11.22.5.5,0,0,0-1-.27,31.85,31.85,0,0,0-1.06,11.49c0,.64,1.06.64,1,0Z"/>
  </g>
  <g>
    <path class="cls-5" d="M15.83.72,19.17,13"/>
    <path class="cls-5" d="M15.35.85l3.34,12.23a.5.5,0,0,0,1-.27L16.31.59a.5.5,0,0,0-1,.26Z"/>
  </g>
  <g>
    <path class="cls-5" d="M19.58,13A46.44,46.44,0,0,1,23.8,1.61"/>
    <path class="cls-5" d="M20.06,13.11A49.11,49.11,0,0,1,24.23,1.86c.3-.57-.57-1.08-.86-.5a50.72,50.72,0,0,0-4.28,11.48c-.15.63.82.9,1,.27Z"/>
  </g>
  <g>
    <path class="cls-5" d="M23.78,1.23a27.93,27.93,0,0,1,.16,12.24"/>
    <path class="cls-5" d="M23.3,1.36a29,29,0,0,1,.16,12c-.13.63.84.9,1,.26a30.09,30.09,0,0,0-.16-12.5c-.14-.63-1.1-.36-1,.26Z"/>
  </g>
</svg>
